<svg xmlns="http://www.w3.org/2000/svg" xmlns:xlink="http://www.w3.org/1999/xlink" viewBox="0 0 623 346" width="100%" height="100%"><path d="M 81.000,143.469 C 83.500,143.469 83.500,143.469 86.000,143.469" stroke-width="5.493" stroke="black" fill="none" stroke-linecap="round"></path><path d="M 86.000,143.469 C 91.000,143.469 91.000,143.469 96.000,143.469" stroke-width="3.964" stroke="black" fill="none" stroke-linecap="round"></path><path d="M 96.000,143.469 C 104.500,143.469 104.500,143.469 113.000,143.469" stroke-width="3.081" stroke="black" fill="none" stroke-linecap="round"></path><path d="M 113.000,143.469 C 119.000,143.469 119.000,143.469 125.000,143.469" stroke-width="3.329" stroke="black" fill="none" stroke-linecap="round"></path><path d="M 125.000,143.469 C 146.000,143.469 146.000,143.469 167.000,143.469" stroke-width="1.776" stroke="black" fill="none" stroke-linecap="round"></path><path d="M 167.000,143.469 C 179.500,143.469 179.870,145.443 192.000,143.469" stroke-width="2.050" stroke="black" fill="none" stroke-linecap="round"></path><path d="M 192.000,143.469 C 201.370,141.943 201.401,140.768 210.000,136.469" stroke-width="2.426" stroke="black" fill="none" stroke-linecap="round"></path><path d="M 210.000,136.469 C 218.401,132.268 218.644,132.225 226.000,126.469" stroke-width="2.471" stroke="black" fill="none" stroke-linecap="round"></path><path d="M 226.000,126.469 C 230.144,123.225 230.087,122.838 233.000,118.469" stroke-width="3.090" stroke="black" fill="none" stroke-linecap="round"></path><path d="M 233.000,118.469 C 235.087,115.338 234.536,114.983 236.000,111.469" stroke-width="3.562" stroke="black" fill="none" stroke-linecap="round"></path><path d="M 236.000,111.469 C 237.036,108.983 237.481,109.061 238.000,106.469" stroke-width="4.031" stroke="black" fill="none" stroke-linecap="round"></path><path d="M 238.000,106.469 C 238.481,104.061 239.154,103.315 238.000,101.469" stroke-width="4.206" stroke="black" fill="none" stroke-linecap="round"></path><path d="M 238.000,101.469 C 236.654,99.315 235.728,99.308 233.000,98.469" stroke-width="4.592" stroke="black" fill="none" stroke-linecap="round"></path><path d="M 233.000,98.469 C 229.228,97.308 229.019,97.660 225.000,97.469" stroke-width="4.168" stroke="black" fill="none" stroke-linecap="round"></path><path d="M 225.000,97.469 C 218.519,97.160 218.317,96.284 212.000,97.469" stroke-width="3.361" stroke="black" fill="none" stroke-linecap="round"></path><path d="M 212.000,97.469 C 202.317,99.284 201.600,98.691 193.000,103.469" stroke-width="2.845" stroke="black" fill="none" stroke-linecap="round"></path><path d="M 193.000,103.469 C 179.100,111.191 178.979,111.797 167.000,122.469" stroke-width="2.148" stroke="black" fill="none" stroke-linecap="round"></path><path d="M 167.000,122.469 C 151.479,136.297 152.242,137.227 138.000,152.469" stroke-width="1.756" stroke="black" fill="none" stroke-linecap="round"></path><path d="M 138.000,152.469 C 123.742,167.727 122.785,167.031 110.000,183.469" stroke-width="1.758" stroke="black" fill="none" stroke-linecap="round"></path><path d="M 110.000,183.469 C 98.285,198.531 98.069,198.842 89.000,215.469" stroke-width="1.738" stroke="black" fill="none" stroke-linecap="round"></path><path d="M 89.000,215.469 C 86.069,220.842 85.341,222.197 86.000,227.469" stroke-width="2.614" stroke="black" fill="none" stroke-linecap="round"></path><path d="M 86.000,227.469 C 86.341,230.197 88.195,231.634 91.000,231.469" stroke-width="3.914" stroke="black" fill="none" stroke-linecap="round"></path><path d="M 91.000,231.469 C 96.695,231.134 97.634,230.046 103.000,226.469" stroke-width="3.309" stroke="black" fill="none" stroke-linecap="round"></path><path d="M 103.000,226.469 C 115.634,218.046 115.280,217.305 127.000,207.469" stroke-width="2.277" stroke="black" fill="none" stroke-linecap="round"></path><path d="M 127.000,207.469 C 143.280,193.805 142.984,193.451 159.000,179.469" stroke-width="1.762" stroke="black" fill="none" stroke-linecap="round"></path><path d="M 159.000,179.469 C 174.484,165.951 174.132,165.521 190.000,152.469" stroke-width="1.679" stroke="black" fill="none" stroke-linecap="round"></path><path d="M 190.000,152.469 C 205.132,140.021 204.995,139.707 221.000,128.469" stroke-width="1.695" stroke="black" fill="none" stroke-linecap="round"></path><path d="M 221.000,128.469 C 228.495,123.207 229.009,123.985 237.000,119.469" stroke-width="2.251" stroke="black" fill="none" stroke-linecap="round"></path><path d="M 237.000,119.469 C 240.509,117.485 242.501,115.169 244.000,115.469" stroke-width="3.121" stroke="black" fill="none" stroke-linecap="round"></path><path d="M 244.000,115.469 C 245.001,115.669 243.663,118.390 242.000,120.469" stroke-width="4.350" stroke="black" fill="none" stroke-linecap="round"></path><path d="M 242.000,120.469 C 235.663,128.390 235.251,128.218 228.000,135.469" stroke-width="2.833" stroke="black" fill="none" stroke-linecap="round"></path><path d="M 228.000,135.469 C 218.251,145.218 218.175,145.159 208.000,154.469" stroke-width="2.313" stroke="black" fill="none" stroke-linecap="round"></path><path d="M 208.000,154.469 C 194.675,166.659 194.979,167.052 181.000,178.469" stroke-width="1.869" stroke="black" fill="none" stroke-linecap="round"></path><path d="M 181.000,178.469 C 164.979,191.552 164.222,190.626 148.000,203.469" stroke-width="1.648" stroke="black" fill="none" stroke-linecap="round"></path><path d="M 148.000,203.469 C 140.222,209.626 140.895,210.488 133.000,216.469" stroke-width="2.170" stroke="black" fill="none" stroke-linecap="round"></path><path d="M 133.000,216.469 C 124.395,222.988 124.230,222.865 115.000,228.469" stroke-width="2.375" stroke="black" fill="none" stroke-linecap="round"></path><path d="M 115.000,228.469 C 110.230,231.365 109.491,233.123 105.000,233.469" stroke-width="3.007" stroke="black" fill="none" stroke-linecap="round"></path><path d="M 105.000,233.469 C 102.991,233.623 101.550,231.569 102.000,229.469" stroke-width="4.319" stroke="black" fill="none" stroke-linecap="round"></path><path d="M 102.000,229.469 C 103.050,224.569 104.104,223.719 108.000,219.469" stroke-width="3.514" stroke="black" fill="none" stroke-linecap="round"></path><path d="M 108.000,219.469 C 115.104,211.719 115.759,212.177 124.000,205.469" stroke-width="2.736" stroke="black" fill="none" stroke-linecap="round"></path><path d="M 124.000,205.469 C 137.259,194.677 136.790,193.842 151.000,184.469" stroke-width="2.000" stroke="black" fill="none" stroke-linecap="round"></path><path d="M 151.000,184.469 C 160.290,178.342 160.734,178.869 171.000,174.469" stroke-width="2.282" stroke="black" fill="none" stroke-linecap="round"></path><path d="M 171.000,174.469 C 188.734,166.869 188.857,166.948 207.000,160.469" stroke-width="1.856" stroke="black" fill="none" stroke-linecap="round"></path><path d="M 207.000,160.469 C 209.857,159.448 209.973,159.637 213.000,159.469" stroke-width="3.025" stroke="black" fill="none" stroke-linecap="round"></path><path d="M 213.000,159.469 C 218.973,159.137 220.215,157.375 225.000,159.469" stroke-width="3.211" stroke="black" fill="none" stroke-linecap="round"></path><path d="M 225.000,159.469 C 228.215,160.875 227.766,162.765 229.000,166.469" stroke-width="4.188" stroke="black" fill="none" stroke-linecap="round"></path><path d="M 229.000,166.469 C 229.766,168.765 229.000,168.969 229.000,171.469" stroke-width="4.298" stroke="black" fill="none" stroke-linecap="round"></path><path d="M 229.000,171.469 C 229.000,173.969 227.750,175.219 229.000,176.469" stroke-width="4.844" stroke="black" fill="none" stroke-linecap="round"></path><path d="M 229.000,176.469 C 230.250,177.719 231.571,176.954 234.000,176.469" stroke-width="4.872" stroke="black" fill="none" stroke-linecap="round"></path><path d="M 234.000,176.469 C 239.071,175.454 239.153,175.354 244.000,173.469" stroke-width="3.742" stroke="black" fill="none" stroke-linecap="round"></path><path d="M 244.000,173.469 C 248.153,171.854 248.151,171.714 252.000,169.469" stroke-width="3.647" stroke="black" fill="none" stroke-linecap="round"></path><path d="M 252.000,169.469 C 254.151,168.214 253.772,166.964 256.000,166.469" stroke-width="4.444" stroke="black" fill="none" stroke-linecap="round"></path><path d="M 256.000,166.469 C 258.272,165.964 258.473,167.239 261.000,167.469" stroke-width="5.154" stroke="black" fill="none" stroke-linecap="round"></path><path d="M 261.000,167.469 C 263.973,167.739 264.000,167.469 267.000,167.469" stroke-width="5.277" stroke="black" fill="none" stroke-linecap="round"></path><path d="M 216.000,202.469 C 221.500,201.469 221.781,202.367 227.000,200.469" stroke-width="5.339" stroke="black" fill="none" stroke-linecap="round"></path><path d="M 227.000,200.469 C 238.281,196.367 238.344,196.152 249.000,190.469" stroke-width="2.876" stroke="black" fill="none" stroke-linecap="round"></path><path d="M 249.000,190.469 C 290.844,168.152 290.944,168.171 332.000,144.469" stroke-width="1.130" stroke="black" fill="none" stroke-linecap="round"></path><path d="M 332.000,144.469 C 339.444,140.171 339.546,140.080 346.000,134.469" stroke-width="1.939" stroke="black" fill="none" stroke-linecap="round"></path><path d="M 346.000,134.469 C 351.046,130.080 350.531,129.496 355.000,124.469" stroke-width="2.648" stroke="black" fill="none" stroke-linecap="round"></path><path d="M 355.000,124.469 C 358.531,120.496 359.297,120.862 362.000,116.469" stroke-width="3.169" stroke="black" fill="none" stroke-linecap="round"></path><path d="M 362.000,116.469 C 363.297,114.362 364.876,112.021 363.000,111.469" stroke-width="4.196" stroke="black" fill="none" stroke-linecap="round"></path><path d="M 363.000,111.469 C 356.376,109.521 352.754,107.481 345.000,111.469" stroke-width="4.012" stroke="black" fill="none" stroke-linecap="round"></path><path d="M 345.000,111.469 C 317.754,125.481 317.429,127.620 293.000,147.469" stroke-width="1.510" stroke="black" fill="none" stroke-linecap="round"></path><path d="M 293.000,147.469 C 277.429,160.120 279.250,162.218 265.000,176.469" stroke-width="1.662" stroke="black" fill="none" stroke-linecap="round"></path><path d="M 265.000,176.469 C 248.750,192.718 248.415,192.382 232.000,208.469" stroke-width="1.559" stroke="black" fill="none" stroke-linecap="round"></path><path d="M 232.000,208.469 C 223.415,216.882 223.090,216.596 215.000,225.469" stroke-width="2.029" stroke="black" fill="none" stroke-linecap="round"></path><path d="M 215.000,225.469 C 207.590,233.596 208.082,234.038 201.000,242.469" stroke-width="2.401" stroke="black" fill="none" stroke-linecap="round"></path><path d="M 201.000,242.469 C 197.582,246.538 192.219,251.278 194.000,250.469" stroke-width="3.011" stroke="black" fill="none" stroke-linecap="round"></path><path d="M 194.000,250.469 C 197.719,248.778 202.931,243.871 212.000,237.469" stroke-width="3.892" stroke="black" fill="none" stroke-linecap="round"></path><path d="M 212.000,237.469 C 219.931,231.871 220.008,231.980 228.000,226.469" stroke-width="2.910" stroke="black" fill="none" stroke-linecap="round"></path><path d="M 228.000,226.469 C 234.508,221.980 234.646,222.165 241.000,217.469" stroke-width="2.913" stroke="black" fill="none" stroke-linecap="round"></path><path d="M 241.000,217.469 C 246.146,213.665 245.734,213.072 251.000,209.469" stroke-width="3.114" stroke="black" fill="none" stroke-linecap="round"></path><path d="M 251.000,209.469 C 255.234,206.572 255.564,207.078 260.000,204.469" stroke-width="3.377" stroke="black" fill="none" stroke-linecap="round"></path><path d="M 260.000,204.469 C 264.064,202.078 264.078,202.083 268.000,199.469" stroke-width="3.488" stroke="black" fill="none" stroke-linecap="round"></path><path d="M 268.000,199.469 C 270.078,198.083 271.323,195.792 272.000,196.469" stroke-width="4.011" stroke="black" fill="none" stroke-linecap="round"></path><path d="M 272.000,196.469 C 272.823,197.292 272.218,199.789 271.000,202.469" stroke-width="4.746" stroke="black" fill="none" stroke-linecap="round"></path><path d="M 271.000,202.469 C 269.718,205.289 266.283,206.274 267.000,207.469" stroke-width="4.264" stroke="black" fill="none" stroke-linecap="round"></path><path d="M 267.000,207.469 C 267.783,208.774 270.957,208.800 274.000,207.469" stroke-width="4.704" stroke="black" fill="none" stroke-linecap="round"></path><path d="M 274.000,207.469 C 278.957,205.300 278.549,204.030 283.000,200.469" stroke-width="3.611" stroke="black" fill="none" stroke-linecap="round"></path><path d="M 283.000,200.469 C 288.549,196.030 288.393,195.829 294.000,191.469" stroke-width="3.144" stroke="black" fill="none" stroke-linecap="round"></path><path d="M 294.000,191.469 C 297.393,188.829 297.682,189.184 301.000,186.469" stroke-width="3.487" stroke="black" fill="none" stroke-linecap="round"></path><path d="M 301.000,186.469 C 303.182,184.684 304.211,182.206 305.000,182.469" stroke-width="4.314" stroke="black" fill="none" stroke-linecap="round"></path><path d="M 305.000,182.469 C 305.711,182.706 302.644,186.306 304.000,187.469" stroke-width="4.915" stroke="black" fill="none" stroke-linecap="round"></path><path d="M 304.000,187.469 C 306.144,189.306 307.988,188.160 312.000,188.469" stroke-width="4.865" stroke="black" fill="none" stroke-linecap="round"></path><path d="M 312.000,188.469 C 314.488,188.660 314.525,188.716 317.000,188.469" stroke-width="4.490" stroke="black" fill="none" stroke-linecap="round"></path><path d="M 317.000,188.469 C 319.525,188.216 319.500,187.469 322.000,187.469" stroke-width="4.331" stroke="black" fill="none" stroke-linecap="round"></path><path d="M 322.000,187.469 C 324.500,187.469 324.500,187.969 327.000,188.469" stroke-width="5.013" stroke="black" fill="none" stroke-linecap="round"></path><path d="M 327.000,188.469 C 329.500,188.969 332.833,189.635 332.000,189.469" stroke-width="4.914" stroke="black" fill="none" stroke-linecap="round"></path><path d="M 335.000,189.469 C 335.000,186.969 335.000,184.469 335.000,184.469" stroke-width="5.517" stroke="black" fill="none" stroke-linecap="round"></path><path d="M 335.000,184.469 C 335.000,184.469 335.248,186.993 335.000,189.469" stroke-width="5.422" stroke="black" fill="none" stroke-linecap="round"></path><path d="M 335.000,189.469 C 334.748,191.993 332.364,193.242 334.000,194.469" stroke-width="4.606" stroke="black" fill="none" stroke-linecap="round"></path><path d="M 334.000,194.469 C 338.364,197.742 340.834,199.662 347.000,198.469" stroke-width="4.476" stroke="black" fill="none" stroke-linecap="round"></path><path d="M 347.000,198.469 C 356.334,196.662 356.843,194.586 365.000,188.469" stroke-width="2.922" stroke="black" fill="none" stroke-linecap="round"></path><path d="M 365.000,188.469 C 372.843,182.586 372.000,181.469 379.000,174.469" stroke-width="2.688" stroke="black" fill="none" stroke-linecap="round"></path><path d="M 379.000,174.469 C 386.500,166.969 386.691,167.143 394.000,159.469" stroke-width="2.555" stroke="black" fill="none" stroke-linecap="round"></path><path d="M 394.000,159.469 C 396.691,156.643 398.112,153.765 399.000,153.469" stroke-width="3.305" stroke="black" fill="none" stroke-linecap="round"></path><path d="M 399.000,153.469 C 399.612,153.265 396.109,156.688 397.000,158.469" stroke-width="4.486" stroke="black" fill="none" stroke-linecap="round"></path><path d="M 335.000,177.469 C 343.000,177.469 343.000,177.469 351.000,177.469" stroke-width="5.179" stroke="black" fill="none" stroke-linecap="round"></path><path d="M 351.000,177.469 C 369.500,177.469 369.500,177.469 388.000,177.469" stroke-width="2.206" stroke="black" fill="none" stroke-linecap="round"></path><path d="M 388.000,177.469 C 400.000,177.469 400.000,177.469 412.000,177.469" stroke-width="2.293" stroke="black" fill="none" stroke-linecap="round"></path><path d="M 412.000,177.469 C 420.000,177.469 420.000,177.469 428.000,177.469" stroke-width="2.634" stroke="black" fill="none" stroke-linecap="round"></path><path d="M 428.000,177.469 C 433.500,177.469 437.778,177.469 439.000,177.469" stroke-width="3.136" stroke="black" fill="none" stroke-linecap="round"></path><path d="M 439.000,177.469 C 439.778,177.469 435.144,176.246 432.000,177.469" stroke-width="4.380" stroke="black" fill="none" stroke-linecap="round"></path><path d="M 432.000,177.469 C 426.144,179.746 426.758,181.464 421.000,184.469" stroke-width="3.468" stroke="black" fill="none" stroke-linecap="round"></path><path d="M 421.000,184.469 C 415.258,187.464 414.731,186.467 409.000,189.469" stroke-width="3.204" stroke="black" fill="none" stroke-linecap="round"></path><path d="M 409.000,189.469 C 404.231,191.967 404.456,192.405 400.000,195.469" stroke-width="3.309" stroke="black" fill="none" stroke-linecap="round"></path><path d="M 400.000,195.469 C 396.456,197.905 396.153,197.602 393.000,200.469" stroke-width="3.596" stroke="black" fill="none" stroke-linecap="round"></path><path d="M 393.000,200.469 C 390.653,202.602 391.000,202.969 389.000,205.469" stroke-width="4.003" stroke="black" fill="none" stroke-linecap="round"></path><path d="M 389.000,205.469 C 387.000,207.969 386.965,207.942 385.000,210.469" stroke-width="4.061" stroke="black" fill="none" stroke-linecap="round"></path><path d="M 385.000,210.469 C 383.465,212.442 381.200,214.949 382.000,214.469" stroke-width="4.755" stroke="black" fill="none" stroke-linecap="round"></path><path d="M 382.000,214.469 C 383.700,213.449 386.247,211.222 390.000,207.469" stroke-width="3.942" stroke="black" fill="none" stroke-linecap="round"></path><path d="M 390.000,207.469 C 395.747,201.722 395.525,201.491 401.000,195.469" stroke-width="3.128" stroke="black" fill="none" stroke-linecap="round"></path><path d="M 401.000,195.469 C 405.525,190.491 405.531,190.496 410.000,185.469" stroke-width="3.136" stroke="black" fill="none" stroke-linecap="round"></path><path d="M 410.000,185.469 C 413.531,181.496 413.410,181.385 417.000,177.469" stroke-width="3.303" stroke="black" fill="none" stroke-linecap="round"></path><path d="M 417.000,177.469 C 418.910,175.385 419.124,173.234 421.000,173.469" stroke-width="4.248" stroke="black" fill="none" stroke-linecap="round"></path><path d="M 421.000,173.469 C 423.124,173.734 422.495,176.799 425.000,178.469" stroke-width="4.940" stroke="black" fill="none" stroke-linecap="round"></path><path d="M 425.000,178.469 C 426.995,179.799 430.641,180.270 430.000,179.469" stroke-width="4.906" stroke="black" fill="none" stroke-linecap="round"></path><path d="M 168.000,281.469 C 194.500,270.469 194.587,270.674 221.000,259.469" stroke-width="4.232" stroke="black" fill="none" stroke-linecap="round"></path><path d="M 221.000,259.469 C 260.587,242.674 260.177,241.686 300.000,225.469" stroke-width="1.212" stroke="black" fill="none" stroke-linecap="round"></path><path d="M 300.000,225.469 C 370.677,196.686 370.329,195.608 442.000,169.469" stroke-width="1.125" stroke="black" fill="none" stroke-linecap="round"></path></svg>